<svg id="Layer_1" data-name="Layer 1" xmlns="http://www.w3.org/2000/svg" viewBox="0 0 58.25 21.6"><defs><style>.cls-1{fill:#ffca57;}</style></defs><path class="cls-1" d="M4.84,5V6.47a7.57,7.57,0,0,1,2-1.11,5.79,5.79,0,0,1,2-.37,4.11,4.11,0,0,1,1.27.19,3.25,3.25,0,0,1,1,.51,3.13,3.13,0,0,1,.74.85A8.18,8.18,0,0,1,14,5.35,5.9,5.9,0,0,1,16,5a4,4,0,0,1,1.62.32,3.13,3.13,0,0,1,1.18.88,2.81,2.81,0,0,1,.59,1.2,5.79,5.79,0,0,1,.09,1.18V13.2a2.13,2.13,0,0,0,.08.73.53.53,0,0,0,.29.26,2.54,2.54,0,0,0,.81.07h.5v2.16H14.63V14.26a3.84,3.84,0,0,0,.91-.07.53.53,0,0,0,.27-.24,1.78,1.78,0,0,0,.09-.71V9.17a3,3,0,0,0-.09-.93.88.88,0,0,0-.37-.4,1.4,1.4,0,0,0-.66-.16,2.61,2.61,0,0,0-.94.2,7.82,7.82,0,0,0-1.49.86v4.38a2.51,2.51,0,0,0,.08.81.61.61,0,0,0,.32.26,3.57,3.57,0,0,0,.87.07v2.16H7.5V14.26a4.08,4.08,0,0,0,.93-.08.53.53,0,0,0,.26-.25,2.24,2.24,0,0,0,.09-.81V9.29a2.72,2.72,0,0,0-.16-1.17.92.92,0,0,0-.87-.44,3.3,3.3,0,0,0-.67.08A2.54,2.54,0,0,0,6.4,8c-.12.06-.43.25-.92.58l-.26.16v4.37a2.39,2.39,0,0,0,.07.78.54.54,0,0,0,.26.26,1.76,1.76,0,0,0,.68.1h.3v2.16H0V14.26H.44a3.32,3.32,0,0,0,.86-.07.53.53,0,0,0,.27-.26,2.24,2.24,0,0,0,.09-.81v-5H0V5.94A12.48,12.48,0,0,0,3.79,5Z"/><path class="cls-1" d="M22,5.26h7V7.41h-.46a2.07,2.07,0,0,0-.79.09.25.25,0,0,0-.16.24,3.3,3.3,0,0,0,.23.71l1.68,4,1.76-4.05a1.75,1.75,0,0,0,.2-.66.28.28,0,0,0-.17-.27,1.91,1.91,0,0,0-.77-.1h-.63V5.26h6V7.41a5.26,5.26,0,0,0-.93.06.71.71,0,0,0-.32.17,3.65,3.65,0,0,0-.4.68L29.16,18.69A5.73,5.73,0,0,1,27.43,21a3.92,3.92,0,0,1-2.26.64,3,3,0,0,1-2.06-.67,2,2,0,0,1-.79-1.53,1.63,1.63,0,0,1,.47-1.16,1.52,1.52,0,0,1,1.13-.48,1.81,1.81,0,0,1,.87.22,1.92,1.92,0,0,1,.57.49,1.27,1.27,0,0,0,.29.29.41.41,0,0,0,.2.06.64.64,0,0,0,.46-.22,4.67,4.67,0,0,0,.76-1.27l.43-.91-3.8-8a3.7,3.7,0,0,0-.43-.76.84.84,0,0,0-.35-.21,4.26,4.26,0,0,0-1-.06Z"/><path class="cls-1" d="M42,5V6.47a7.37,7.37,0,0,1,2-1.11A5.84,5.84,0,0,1,46,5a4.16,4.16,0,0,1,1.27.19,3.3,3.3,0,0,1,1,.51,3.15,3.15,0,0,1,.75.85,7.85,7.85,0,0,1,2.08-1.19,5.86,5.86,0,0,1,2-.36,4.07,4.07,0,0,1,1.62.32,3.21,3.21,0,0,1,1.18.88,2.79,2.79,0,0,1,.58,1.2,5.79,5.79,0,0,1,.09,1.18V13.2a1.83,1.83,0,0,0,.09.73.51.51,0,0,0,.28.26,2.58,2.58,0,0,0,.82.07h.49v2.16H51.73V14.26a3.84,3.84,0,0,0,.91-.07.51.51,0,0,0,.28-.24,1.78,1.78,0,0,0,.09-.71V9.17a2.93,2.93,0,0,0-.1-.93.83.83,0,0,0-.37-.4,1.34,1.34,0,0,0-.66-.16,2.65,2.65,0,0,0-.94.2,8.48,8.48,0,0,0-1.49.86v4.38a2.16,2.16,0,0,0,.09.81.58.58,0,0,0,.31.26,3.64,3.64,0,0,0,.87.07v2.16H44.61V14.26a4.24,4.24,0,0,0,.93-.08.51.51,0,0,0,.25-.25,2.24,2.24,0,0,0,.09-.81V9.29a2.94,2.94,0,0,0-.15-1.17.94.94,0,0,0-.88-.44,3.13,3.13,0,0,0-.66.08A2.74,2.74,0,0,0,43.5,8c-.12.06-.42.25-.92.58l-.25.16v4.37a2.89,2.89,0,0,0,.06.78.62.62,0,0,0,.27.26,1.7,1.7,0,0,0,.67.1h.3v2.16H37.1V14.26h.44a3.48,3.48,0,0,0,.87-.07.55.55,0,0,0,.26-.26,2.24,2.24,0,0,0,.09-.81v-5H37.1V5.94a12.48,12.48,0,0,0,3.79-1Z"/><path class="cls-1" d="M32.73,0a2,2,0,0,1,1.45.6,2,2,0,0,1,.59,1.45,2,2,0,0,1-2,2.05,2,2,0,0,1-2-2A2,2,0,0,1,31.3.61,2,2,0,0,1,32.73,0Z"/></svg>